<svg width="20" height="25" viewBox="0 0 20 25" fill="none" xmlns="http://www.w3.org/2000/svg">
<g id="Frame">
<path id="Vector" fill-rule="evenodd" clip-rule="evenodd" d="M9.45269 24.1429C9.94668 24.1429 18.7733 14.7121 18.7733 9.56454C18.7733 4.41694 14.6003 0.243988 9.45269 0.243988C4.30509 0.243988 0.132141 4.41694 0.132141 9.56454C0.132141 14.7121 8.95871 24.1429 9.45269 24.1429ZM9.4527 14.2264C12.0625 14.2264 14.1782 12.1106 14.1782 9.5008C14.1782 6.89096 12.0625 4.77528 9.4527 4.77528C6.84288 4.77528 4.72719 6.89096 4.72719 9.5008C4.72719 12.1106 6.84288 14.2264 9.4527 14.2264Z" fill="#F80301"/>
<path id="Vector_2" fill-rule="evenodd" clip-rule="evenodd" d="M0.132141 9.56454C0.132141 14.7121 8.95871 24.1429 9.45269 24.1429V14.2264C6.84286 14.2262 4.72719 12.1106 4.72719 9.5008C4.72719 6.89097 6.84286 4.77529 9.45269 4.77528V0.243988C4.30509 0.243988 0.132141 4.41694 0.132141 9.56454Z" fill="#F80301"/>
</g>
</svg>
