<svg width="18" height="16" viewBox="0 0 18 16" fill="none" xmlns="http://www.w3.org/2000/svg">
<g id="Waze">
<path id="Vector" d="M10.1904 0.649902C6.99685 0.649902 3.73968 2.75953 3.10096 5.95518C2.71774 7.87258 3.22945 9.66139 1.63268 9.66139C0.930092 9.66139 0.481996 10.493 0.929094 11.0682C1.82329 12.2826 3.03759 12.9851 4.25114 13.4325L4.6441 13.5898C4.62143 13.812 4.64557 14.0365 4.71497 14.2488C4.78437 14.4611 4.89748 14.6565 5.047 14.8224C5.19653 14.9882 5.37914 15.1209 5.58306 15.2117C5.78698 15.3026 6.00768 15.3497 6.2309 15.3499C6.59849 15.3493 6.95462 15.2218 7.23916 14.9889C7.5237 14.756 7.71923 14.432 7.79275 14.0716H10.3189H10.4162C10.4898 14.4323 10.6855 14.7564 10.9703 14.9893C11.2551 15.2222 11.6115 15.3496 11.9793 15.3499C12.2323 15.3499 12.4817 15.2896 12.7069 15.1742C12.9321 15.0588 13.1267 14.8915 13.2746 14.6861C13.4225 14.4807 13.5195 14.243 13.5576 13.9927C13.5957 13.7425 13.5738 13.4867 13.4938 13.2465C16.1698 11.885 17.6566 9.17454 17.1526 6.27475C16.7694 3.01518 13.5756 0.649902 10.1904 0.649902ZM8.14704 5.12382C7.89294 5.12382 7.64925 5.22482 7.46958 5.40461C7.28991 5.5844 7.18897 5.82825 7.18897 6.08251C7.18897 6.33677 7.28991 6.58062 7.46958 6.76041C7.64925 6.9402 7.89294 7.04121 8.14704 7.04121C8.40113 7.04121 8.64482 6.9402 8.82449 6.76041C9.00416 6.58062 9.1051 6.33677 9.1051 6.08251C9.1051 5.82825 9.00416 5.5844 8.82449 5.40461C8.64482 5.22482 8.40113 5.12382 8.14704 5.12382ZM11.9793 5.12382C11.7252 5.12382 11.4815 5.22482 11.3019 5.40461C11.1222 5.5844 11.0212 5.82825 11.0212 6.08251C11.0212 6.33677 11.1222 6.58062 11.3019 6.76041C11.4815 6.9402 11.7252 7.04121 11.9793 7.04121C12.2334 7.04121 12.4771 6.9402 12.6568 6.76041C12.8364 6.58062 12.9374 6.33677 12.9374 6.08251C12.9374 5.82825 12.8364 5.5844 12.6568 5.40461C12.4771 5.22482 12.2334 5.12382 11.9793 5.12382ZM7.57569 7.66661C7.53577 7.66061 7.49261 7.66436 7.4447 7.68034C7.25309 7.74425 7.1251 7.87183 7.18897 8.06357C7.50832 9.53357 8.91349 10.2369 10.0632 10.2369C11.2129 10.2369 12.618 9.53357 12.9374 8.06357C12.9374 7.87183 12.8733 7.74425 12.6816 7.68034C12.49 7.68034 12.3625 7.7445 12.2987 7.93624C12.0432 9.08667 10.9574 9.59773 10.0632 9.59773C9.16897 9.59773 8.08316 9.08667 7.82768 7.93624C7.77978 7.79243 7.69545 7.68458 7.57569 7.66661Z" fill="white"/>
<path id="Vector_2" d="M10.1904 0.649902C6.99686 0.649902 3.73968 2.75953 3.10096 5.95518C2.71774 7.87258 3.22945 9.66139 1.63268 9.66139C0.930092 9.66139 0.481996 10.493 0.929094 11.0682C1.82329 12.2826 3.03759 12.9851 4.25114 13.4325L4.6441 13.5898C4.62143 13.812 4.64557 14.0365 4.71497 14.2488C4.78437 14.4611 4.89748 14.6565 5.047 14.8224C5.19653 14.9882 5.37914 15.1209 5.58306 15.2117C5.78698 15.3026 6.00768 15.3497 6.2309 15.3499C6.59849 15.3493 6.95462 15.2218 7.23916 14.9889C7.5237 14.756 7.71923 14.432 7.79275 14.0716H10.3189H10.4162C10.4898 14.4323 10.6855 14.7564 10.9703 14.9893C11.2551 15.2222 11.6115 15.3496 11.9793 15.3499C12.2323 15.3499 12.4817 15.2896 12.7069 15.1742C12.9321 15.0588 13.1267 14.8915 13.2746 14.6861C13.4225 14.4807 13.5195 14.243 13.5576 13.9927C13.5957 13.7425 13.5738 13.4867 13.4938 13.2465C16.1698 11.885 17.6566 9.17454 17.1526 6.27475C16.7694 3.01518 13.5756 0.649902 10.1904 0.649902ZM10.1904 1.92816C13.0646 1.92816 15.6202 3.90997 16.0673 6.59432C16.4505 8.89518 15.2365 11.1314 13.001 12.2179L12.7116 12.334C12.4853 12.2165 12.2342 12.1548 11.9793 12.1543C11.7316 12.1544 11.4874 12.2123 11.2659 12.3232C11.0444 12.4341 10.8517 12.5951 10.7031 12.7934H10.7019H10.4461H7.76406C7.68591 12.7934 7.58552 12.7832 7.49585 12.7796C7.34697 12.5854 7.15547 12.428 6.93615 12.3196C6.71683 12.2111 6.47553 12.1546 6.2309 12.1543C5.92055 12.1549 5.6171 12.246 5.35766 12.4164C5.35097 12.4142 5.34308 12.4124 5.33645 12.4102L4.76136 12.2179C3.86717 11.8983 3.10096 11.4515 2.46225 10.8123C3.99516 10.3649 4.12365 8.57562 4.18752 7.55301C4.25139 7.10562 4.25089 6.65723 4.31477 6.20984C4.88961 3.52549 7.69944 1.92816 10.1904 1.92816ZM8.14704 5.12382C7.89294 5.12382 7.64925 5.22482 7.46958 5.40461C7.28991 5.5844 7.18897 5.82825 7.18897 6.08251C7.18897 6.33677 7.28991 6.58062 7.46958 6.76041C7.64925 6.9402 7.89294 7.04121 8.14704 7.04121C8.40113 7.04121 8.64482 6.9402 8.82449 6.76041C9.00416 6.58062 9.1051 6.33677 9.1051 6.08251C9.1051 5.82825 9.00416 5.5844 8.82449 5.40461C8.64482 5.22482 8.40113 5.12382 8.14704 5.12382ZM11.9793 5.12382C11.7252 5.12382 11.4815 5.22482 11.3019 5.40461C11.1222 5.5844 11.0212 5.82825 11.0212 6.08251C11.0212 6.33677 11.1222 6.58062 11.3019 6.76041C11.4815 6.9402 11.7252 7.04121 11.9793 7.04121C12.2334 7.04121 12.4771 6.9402 12.6568 6.76041C12.8364 6.58062 12.9374 6.33677 12.9374 6.08251C12.9374 5.82825 12.8364 5.5844 12.6568 5.40461C12.4771 5.22482 12.2334 5.12382 11.9793 5.12382ZM7.57569 7.66661C7.53577 7.66061 7.49261 7.66436 7.4447 7.68034C7.25309 7.74425 7.1251 7.87183 7.18897 8.06357C7.50832 9.53357 8.91349 10.2369 10.0632 10.2369C11.2129 10.2369 12.618 9.53357 12.9374 8.06357C12.9374 7.87183 12.8733 7.74425 12.6816 7.68034C12.49 7.68034 12.3625 7.7445 12.2987 7.93624C12.0432 9.08667 10.9574 9.59773 10.0632 9.59773C9.16897 9.59773 8.08317 9.08667 7.82768 7.93624C7.77978 7.79244 7.69545 7.68458 7.57569 7.66661Z" fill="black"/>
</g>
</svg>
