<svg width="32" height="32" viewBox="0 0 32 32" fill="none" xmlns="http://www.w3.org/2000/svg">
<path fill-rule="evenodd" clip-rule="evenodd" d="M16 6.75C10.8914 6.75 6.75 10.8914 6.75 16C6.75 21.1086 10.8914 25.25 16 25.25C21.1086 25.25 25.25 21.1086 25.25 16C25.25 10.8914 21.1086 6.75 16 6.75ZM5.25 16C5.25 10.0629 10.0629 5.25 16 5.25C21.9371 5.25 26.75 10.0629 26.75 16C26.75 21.9371 21.9371 26.75 16 26.75C10.0629 26.75 5.25 21.9371 5.25 16ZM15.25 10H16.75V15.25H21V16.75H15.25V10Z" fill="white"/>
</svg>
